<?xml version="1.0" encoding="UTF-8"?>
<svg version="1.1" xmlns="http://www.w3.org/2000/svg" width="272" height="237">
<path d="M0 0 C89.76 0 179.52 0 272 0 C272 78.21 272 156.42 272 237 C182.24 237 92.48 237 0 237 C0 158.79 0 80.58 0 0 Z " fill="#010101" transform="translate(0,0)"/>
<path d="M0 0 C0.66 0 1.32 0 2 0 C2.63615234 1.28583984 2.63615234 1.28583984 3.28515625 2.59765625 C7.9372609 11.66670421 12.25264403 18.93071547 22 23 C29.55881474 23.88518841 36.28426597 23.64985545 43 20 C46.18729828 18.98277715 49.16367388 18.83541433 52.5 18.8125 C53.4384375 18.79832031 54.376875 18.78414062 55.34375 18.76953125 C59.1458687 19.09942096 61.09320524 20.06263912 63.73828125 22.796875 C65.28042403 25.48965682 65.30904037 27.17097724 65.1875 30.25 C65.14689453 31.58804687 65.14689453 31.58804687 65.10546875 32.953125 C65.07066406 33.62859375 65.03585938 34.3040625 65 35 C64.34 35 63.68 35 63 35 C62.67708984 35.87205078 62.67708984 35.87205078 62.34765625 36.76171875 C60.55406072 39.74064697 58.35372172 40.94566185 55.4375 42.8125 C50.97743414 45.89118143 50.97743414 45.89118143 48.625 50.6875 C49.07160463 54.63250759 50.18138825 57.18138825 53 60 C54.51931095 60.21915986 56.04052625 60.42516833 57.5625 60.625 C62.53941015 61.62038203 65.89781637 63.2628676 69.55078125 66.8046875 C71.85534492 70.29569769 71.9084672 73.31321265 71.59375 77.41015625 C70.44168761 82.43527051 67.69572719 84.67091652 63.6875 87.8125 C54.43818153 91.89940816 40.72581604 91.08410344 31 89 C27.9375 87.125 27.9375 87.125 25 85 C23.88625 84.566875 22.7725 84.13375 21.625 83.6875 C12.27803947 79.33632872 6.80548042 71.18411475 1 63 C-1.87477998 65.7544698 -4.25911953 68.61604448 -6.625 71.8125 C-13.70340821 80.69315974 -22.47398436 85.16059265 -33 89 C-34.41925781 89.55107422 -34.41925781 89.55107422 -35.8671875 90.11328125 C-42.90441001 92.10511356 -52.89337248 92.50598954 -59.625 89.375 C-61.3828125 88.23828125 -61.3828125 88.23828125 -63 87 C-63.59554687 86.62230469 -64.19109375 86.24460937 -64.8046875 85.85546875 C-67.8630988 83.52290161 -68.8527443 81.73627852 -69.61328125 77.93359375 C-69.86315522 73.62694231 -70.03943682 69.76976008 -67.8046875 65.96484375 C-63.77207523 62.15626549 -58.67591228 60.55450389 -53.453125 58.95703125 C-50.89491453 57.95900328 -49.63712683 57.18639088 -48 55 C-47.50163806 51.08429908 -47.32312833 48.92756488 -49.6875 45.6875 C-51.91950852 43.91266716 -51.91950852 43.91266716 -54.5 43 C-57.43326248 41.82669501 -58.97461484 40.40045648 -61 38 C-61 37.34 -61 36.68 -61 36 C-61.66 36 -62.32 36 -63 36 C-63.68862988 26.32092452 -63.68862988 26.32092452 -61.125 22.4375 C-58.77348091 19.74016928 -58.04116026 19.08566508 -54.53125 18.796875 C-49.37756847 18.71717889 -44.90174466 18.81303593 -40 20.5 C-31.34708674 23.41671233 -22.24928204 22.94604832 -14 19 C-10.61101116 16.84337074 -8.57410848 14.50147191 -6.3125 11.25 C-5.1678125 9.64125 -5.1678125 9.64125 -4 8 C-3.34 8 -2.68 8 -2 8 C-1.855625 6.865625 -1.71125 5.73125 -1.5625 4.5625 C-1 1 -1 1 0 0 Z " fill="#5C5C5C" transform="translate(131,20)"/>
<path d="M0 0 C1.43182617 -0.01740234 1.43182617 -0.01740234 2.89257812 -0.03515625 C11.81288916 0.00178086 17.39443704 2.29929868 23.9375 8.375 C25.93998827 12.37997654 25.55205639 17.0300863 24.9375 21.375 C22.51447097 26.2508494 18.07528339 27.87625832 13.1875 29.6875 C11.43869709 30.25371078 9.6889236 30.81694836 7.9375 31.375 C5.32476012 32.68136994 4.96513876 33.65909758 3.9375 36.375 C3.27069632 39.33220628 3.27069632 39.33220628 3.9375 42.375 C5.93794811 44.37544811 7.63832256 45.80715133 9.9375 47.375 C11.18883739 48.24808633 12.43885427 49.12306851 13.6875 50 C14.25984375 50.38414062 14.8321875 50.76828125 15.421875 51.1640625 C17.6131449 52.91481938 18.8079509 54.65907078 19.30859375 57.42578125 C19.43249898 61.64584768 19.33637404 64.50211602 16.625 67.875 C12.29323367 71.90455008 8.46263015 71.63882076 2.81640625 71.609375 C0.10561962 71.38868681 -1.75622293 70.89365267 -4.25 69.875 C-11.35646005 67.22448247 -20.75310563 66.69182935 -27.8828125 69.4765625 C-30.1959602 70.94286291 -32.09630434 72.47195837 -34.0625 74.375 C-34.63355469 74.91640625 -35.20460938 75.4578125 -35.79296875 76.015625 C-39.78147188 80.23063571 -41.99091445 85.00106336 -44.0625 90.375 C-44.7225 90.375 -45.3825 90.375 -46.0625 90.375 C-46.37703125 89.71113281 -46.6915625 89.04726562 -47.015625 88.36328125 C-51.09597956 79.94447741 -55.59644252 72.55498347 -64.71875 68.9140625 C-72.81898276 67.05100896 -81.20717551 67.64560958 -88.875 70.6953125 C-94.22543193 72.35776814 -100.03174092 72.28676938 -105.125 70 C-109.0139667 66.73828599 -109.0139667 66.73828599 -109.328125 64.38671875 C-109.27213173 56.05771955 -109.27213173 56.05771955 -107.0625 52.375 C-104.84010895 50.34870228 -102.53724075 48.67328051 -99.9921875 47.07421875 C-95.75964031 44.39822812 -95.75964031 44.39822812 -93.328125 40.2109375 C-92.99043285 37.77128638 -92.99043285 37.77128638 -93.0625 34.375 C-93.68125 34.08625 -94.3 33.7975 -94.9375 33.5 C-97.0625 32.375 -97.0625 32.375 -99.0625 30.375 C-100.48517364 29.89145867 -101.92579463 29.4595092 -103.375 29.0625 C-107.72589912 27.65650205 -110.25663487 26.11615351 -113.0625 22.375 C-114.48390479 18.91418833 -115.27372448 16.58199701 -114.625 12.875 C-111.47508437 7.835135 -108.06398014 4.18261479 -102.5 1.9375 C-92.65653537 0.21728288 -83.38671189 0.985824 -74.0625 4.375 C-73.32773438 4.55675781 -72.59296875 4.73851562 -71.8359375 4.92578125 C-61.75563282 7.54381091 -54.3357276 15.30184584 -48.40234375 23.52734375 C-47.05473595 25.48765049 -47.05473595 25.48765049 -45.0625 27.375 C-44.66160156 26.82972656 -44.26070313 26.28445312 -43.84765625 25.72265625 C-32.39386751 10.52885486 -19.69908574 -0.24039562 0 0 Z " fill="#C1C1C1" transform="translate(177.0625,128.625)"/>
<path d="M0 0 C3.34192499 1.41249117 5.07565375 3.04557634 7.3125 5.875 C11.56479847 10.78837008 14.75406434 13.66659221 21.30859375 14.33984375 C28.00579407 14.51701836 33.10771657 14.20232795 39 11 C42.18729828 9.98277715 45.16367388 9.83541433 48.5 9.8125 C49.4384375 9.79832031 50.376875 9.78414062 51.34375 9.76953125 C55.1458687 10.09942096 57.09320524 11.06263912 59.73828125 13.796875 C61.28042403 16.48965682 61.30904037 18.17097724 61.1875 21.25 C61.14689453 22.58804688 61.14689453 22.58804688 61.10546875 23.953125 C61.07066406 24.62859375 61.03585938 25.3040625 61 26 C60.34 26 59.68 26 59 26 C58.78472656 26.58136719 58.56945312 27.16273437 58.34765625 27.76171875 C56.55406072 30.74064697 54.35372172 31.94566185 51.4375 33.8125 C46.97743414 36.89118143 46.97743414 36.89118143 44.625 41.6875 C45.07160463 45.63250759 46.18138825 48.18138825 49 51 C50.51931095 51.21915986 52.04052625 51.42516833 53.5625 51.625 C58.53941015 52.62038203 61.89781637 54.2628676 65.55078125 57.8046875 C67.85534492 61.29569769 67.9084672 64.31321265 67.59375 68.41015625 C66.44168761 73.43527051 63.69572719 75.67091652 59.6875 78.8125 C50.43818153 82.89940816 36.72581604 82.08410344 27 80 C23.9375 78.125 23.9375 78.125 21 76 C19.88625 75.566875 18.7725 75.13375 17.625 74.6875 C8.93996238 70.64446525 2.81877072 63.14744775 -2 55 C-3.40548249 50.84238669 -2.73156186 48.39694453 -1.125 44.375 C-0.75632813 43.43398437 -0.38765625 42.49296875 -0.0078125 41.5234375 C0.32476562 40.69070312 0.65734375 39.85796875 1 39 C2.46851044 34.59446867 2.19057268 30.30342653 2.1875 25.6875 C2.18814453 24.70378418 2.18878906 23.72006836 2.18945312 22.70654297 C2.13382035 14.97990847 1.45272204 7.60084925 0 0 Z " fill="#818181" transform="translate(135,29)"/>
<path d="M0 0 C0.70519775 0.00346436 1.41039551 0.00692871 2.13696289 0.01049805 C8.0010858 0.13200992 12.81055614 1.27270855 18.25 3.3125 C18.9821875 3.49425781 19.714375 3.67601562 20.46875 3.86328125 C30.55314088 6.47315002 37.97652754 14.23900639 43.91015625 22.46484375 C45.25776405 24.42515049 45.25776405 24.42515049 47.25 26.3125 C48.24 25.8175 48.24 25.8175 49.25 25.3125 C48.25 27.3125 47.25 29.3125 46.25 31.3125 C45.59 31.3125 44.93 31.3125 44.25 31.3125 C44.11722656 32.00214844 43.98445313 32.69179687 43.84765625 33.40234375 C43.43267772 35.42299085 42.97929884 37.43597993 42.49609375 39.44140625 C39.39512571 52.60928504 40.22974406 64.10868441 42.25 77.3125 C39.25 77.3125 39.25 77.3125 36.9375 75.0625 C36.050625 74.155 35.16375 73.2475 34.25 72.3125 C26.4687444 66.70999597 19.52931913 66.7385215 10.25 67.3125 C7.871701 67.92671536 5.7153943 68.72683181 3.4375 69.6328125 C-1.91293193 71.29526814 -7.71924092 71.22426938 -12.8125 68.9375 C-16.7014667 65.67578599 -16.7014667 65.67578599 -17.015625 63.32421875 C-16.95963173 54.99521955 -16.95963173 54.99521955 -14.75 51.3125 C-12.52760895 49.28620228 -10.22474075 47.61078051 -7.6796875 46.01171875 C-3.44714031 43.33572812 -3.44714031 43.33572812 -1.015625 39.1484375 C-0.67793285 36.70878638 -0.67793285 36.70878638 -0.75 33.3125 C-1.36875 33.02375 -1.9875 32.735 -2.625 32.4375 C-4.75 31.3125 -4.75 31.3125 -6.75 29.3125 C-8.17267364 28.82895867 -9.61329463 28.3970092 -11.0625 28 C-15.41339912 26.59400205 -17.94413487 25.05365351 -20.75 21.3125 C-22.17140479 17.85168833 -22.96122448 15.51949701 -22.3125 11.8125 C-16.78064903 2.96153844 -10.39300191 -0.08328324 0 0 Z " fill="#8C8C8C" transform="translate(84.75,129.6875)"/>
<path d="M0 0 C3.93638561 2.61584599 6.3574806 5.51337445 7.765625 10.08984375 C8.11305956 13.3639728 7.96077368 16.00558909 6.765625 19.08984375 C3.22834591 22.87134478 -1.04669527 25.83315793 -6.3203125 26.2578125 C-14.5047059 26.32764521 -14.5047059 26.32764521 -18.234375 24.08984375 C-22.234375 19.76551943 -22.234375 19.76551943 -22.234375 17.08984375 C-22.894375 17.08984375 -23.554375 17.08984375 -24.234375 17.08984375 C-24.7219357 13.10809801 -25.08543572 9.57502815 -23.0390625 6.00390625 C-17.12837421 -1.03545619 -8.9187239 -3.6329767 0 0 Z " fill="#656565" transform="translate(37.234375,106.91015625)"/>
<path d="M0 0 C1.14210937 -0.01417969 2.28421875 -0.02835937 3.4609375 -0.04296875 C8.06815193 0.29261847 9.94927838 1.58856493 13.375 4.625 C16.84936719 8.88561542 16.04136895 13.98751445 15.625 19.1875 C14.965 19.1875 14.305 19.1875 13.625 19.1875 C13.3775 19.785625 13.13 20.38375 12.875 21 C10.84923998 24.54508004 8.44505844 25.91414719 4.625 27.1875 C-0.21693485 27.57739363 -5.20029512 27.89541668 -9.375 25.1875 C-12.82213139 21.74036861 -15.71482121 18.17032228 -16.1875 13.1875 C-15.80645473 7.98674699 -12.07058001 4.54027734 -8.375 1.1875 C-5.5555932 -0.2222034 -3.14232774 0.01765353 0 0 Z " fill="#888888" transform="translate(232.375,105.8125)"/>
<path d="M0 0 C2.15625 0.72265625 2.15625 0.72265625 4 2 C4.71484375 4.2421875 4.71484375 4.2421875 4.9375 6.875 C5.02902344 7.73867187 5.12054688 8.60234375 5.21484375 9.4921875 C4.94936393 12.59106105 4.18574689 13.81425311 2 16 C-2.82609075 17.26585987 -4.87153736 17.46347573 -9.5 15.5625 C-12 13 -12 13 -12.6875 9.0625 C-12.41979943 5.80750447 -11.88433641 4.83176204 -9.9375 2 C-6.28060335 -0.48980198 -4.34579086 -0.55310065 0 0 Z " fill="#797979" transform="translate(56,162)"/>
<path d="M0 0 C2.375 0.9375 2.375 0.9375 4 3 C5.33404484 7.49590437 5.58258058 10.81056464 3.5 15.0625 C1 17 1 17 -2.4375 17.5625 C-6.48717033 16.92307837 -8.13096902 15.86903098 -11 13 C-12.44430855 10.11138291 -12.37688506 8.20352299 -12 5 C-8.52074434 0.15012847 -5.8769667 -0.85483152 0 0 Z " fill="#B0B0B0" transform="translate(214,162)"/>
<path d="M0 0 C3.23617033 2.89189689 4.7957748 4.74912064 5.5 9.0625 C4.90661478 12.54863819 4.44440122 14.4028237 2 17 C-2.58799313 17.665999 -4.84155562 17.55508793 -9 15.5625 C-11.5483087 12.29747947 -11.66820472 10.18849387 -11.4140625 6.12890625 C-11 4 -11 4 -9.4375 1.4375 C-5.97050841 -0.60713607 -3.95700755 -0.69421185 0 0 Z " fill="#717171" transform="translate(214,60)"/>
<path d="M0 0 C2.9375 1.5 2.9375 1.5 5 4 C5.7975483 9.02455429 5.82360163 10.83726829 2.875 15 C0 17 0 17 -3 17.625 C-7.14182881 16.762119 -8.56226471 15.44150865 -11 12 C-11.89291241 8.07894985 -11.6077527 4.97240433 -9.4375 1.5 C-6.03618625 -0.59311615 -3.92927257 -0.55147685 0 0 Z " fill="#5C5C5C" transform="translate(56,60)"/>
<path d="M0 0 C0 0.66 0 1.32 0 2 C0.66 2.33 1.32 2.66 2 3 C-1.2598348 2.41197376 -4.20983593 1.57826636 -7.3125 0.4375 C-16.71432606 -2.42822176 -27.20481139 -2.5201939 -36 2 C-39.1392763 4.28879507 -41.48651101 6.78046365 -43 10.375 C-43 14.154826 -42.04622303 17.36899067 -41 21 C-44 19 -44 19 -45 16 C-45.55111369 11.93553651 -45.81173679 9.4480337 -43.7890625 5.83984375 C-32.7609261 -8.01004586 -14.96605718 -5.65328298 0 0 Z " fill="#3E3E3E" transform="translate(106,132)"/>
<path d="M0 0 C4.04405715 1.58646025 7.0823166 4.06451318 9 8 C9.41297733 11.70659901 9.29726158 15.2875331 9 19 C8.67 19 8.34 19 8 19 C7.98582031 18.33613281 7.97164062 17.67226562 7.95703125 16.98828125 C7.66756935 10.97512951 7.66756935 10.97512951 4.4375 6 C3.633125 5.34 2.82875 4.68 2 4 C2 3.34 2 2.68 2 2 C-5.2484945 1.58359712 -11.16914355 2.55833216 -18 5 C-13.55705729 -1.58213735 -7.40301223 -0.89819433 0 0 Z " fill="#4B4B4B" transform="translate(239,106)"/>
<path d="M0 0 C2.4375 1 2.4375 1 4 2 C3.67 2.66 3.34 3.32 3 4 C0.03 3.01 -2.94 2.02 -6 1 C-6.66 2.32 -7.32 3.64 -8 5 C-8.33 5.33 -8.66 5.66 -9 6 C-9.23075082 7.34747084 -9.41153063 8.70377565 -9.5625 10.0625 C-9.7790625 12.0115625 -9.7790625 12.0115625 -10 14 C-10.66 13.67 -11.32 13.34 -12 13 C-12.60356653 5.87791495 -12.60356653 5.87791495 -9.9375 2 C-6.28060335 -0.48980198 -4.34579086 -0.55310065 0 0 Z " fill="#4D4D4D" transform="translate(56,162)"/>
<path d="M0 0 C0.99 0.33 1.98 0.66 3 1 C2.2884375 1.5878125 2.2884375 1.5878125 1.5625 2.1875 C-0.48406717 4.56151792 -0.7908327 5.86249054 -1 9 C-0.49145849 11.73595335 0.22752596 14.3190607 1 17 C-2 15 -2 15 -3 12 C-3.45933014 4.76555024 -3.45933014 4.76555024 -1.5 1.5 C-1.005 1.005 -0.51 0.51 0 0 Z " fill="#454545" transform="translate(64,136)"/>
<path d="M0 0 C0.66 0.33 1.32 0.66 2 1 C0.71937515 2.7074998 -0.61767557 4.37373596 -2 6 C-2.66 6 -3.32 6 -4 6 C-4 9.3 -4 12.6 -4 16 C-4.66 16 -5.32 16 -6 16 C-6.49873087 11.92703124 -6.88737164 8.43224897 -4.6640625 4.84375 C-3.17536024 3.13838216 -1.66082274 1.53724962 0 0 Z " fill="#404040" transform="translate(19,108)"/>
<path d="M0 0 C0 0.33 0 0.66 0 1 C-1.98 1 -3.96 1 -6 1 C-6.268125 1.639375 -6.53625 2.27875 -6.8125 2.9375 C-8 5 -8 5 -11 6 C-11 7.65 -11 9.3 -11 11 C-11.33 11 -11.66 11 -12 11 C-12.46233492 7.0239197 -12.30954571 5.43148796 -9.9375 2.125 C-6.34962488 -0.47048413 -4.3322929 -0.4247346 0 0 Z " fill="#7A7A7A" transform="translate(214,162)"/>
<path d="M0 0 C1.670625 0.061875 1.670625 0.061875 3.375 0.125 C3.375 0.455 3.375 0.785 3.375 1.125 C1.395 1.125 -0.585 1.125 -2.625 1.125 C-2.893125 1.764375 -3.16125 2.40375 -3.4375 3.0625 C-4.625 5.125 -4.625 5.125 -7.625 6.125 C-4.84462617 0.16705607 -4.84462617 0.16705607 0 0 Z " fill="#545454" transform="translate(210.625,59.875)"/>
<path d="M0 0 C-1.45255699 3.82946843 -3.42895561 5.12050295 -7 7 C-3.86206897 0 -3.86206897 0 0 0 Z " fill="#434343" transform="translate(69,83)"/>
</svg>
